<svg xmlns="http://www.w3.org/2000/svg" xmlns:xlink="http://www.w3.org/1999/xlink" width="500" zoomAndPan="magnify" viewBox="0 0 375 374.999991" height="500" preserveAspectRatio="xMidYMid meet" version="1.0"><defs><g/></defs><path stroke-linecap="butt" transform="matrix(9.008705, 0, 0, 9.008705, -115.834397, -183.159626)" fill="none" stroke-linejoin="miter" d="M 31.358387 55.000128 L 18.24737 55.000128 L 18.24737 39.636516 C 18.24737 37.006248 18.681412 34.714628 19.549496 32.761655 C 20.426252 30.808683 21.602198 29.185687 23.077767 27.892233 C 24.553337 26.590108 26.202783 25.617958 28.025239 24.975784 C 29.856801 24.33361 31.736059 24.012306 33.663015 24.012306 C 35.581299 24.012306 37.464893 24.33361 39.313799 24.975784 C 41.162706 25.617958 42.816054 26.590108 44.274279 27.892233 C 45.732504 29.185687 46.895875 30.808683 47.763959 32.761655 C 48.63161 34.714628 49.065652 37.006248 49.065652 39.636516 L 49.065652 55.000128 L 35.954635 55.000128 L 35.954635 39.636516 C 35.954635 38.855154 35.720053 38.243333 35.251323 37.800618 C 34.791264 37.357904 34.261828 37.13633 33.663015 37.13633 C 33.090218 37.13633 32.560783 37.357904 32.074708 37.800618 C 31.597305 38.243333 31.358387 38.855154 31.358387 39.636516 Z M 31.358387 55.000128 " stroke="#000000" stroke-width="3.999998" stroke-opacity="1" stroke-miterlimit="4"/><g fill="#ffffff" fill-opacity="1"><g transform="translate(44.210881, 312.319158)"><g><path d="M 122.515625 0 L 4.328125 0 L 4.328125 -138.359375 C 4.328125 -162.066406 8.25 -182.726562 16.09375 -200.34375 C 23.9375 -217.957031 34.503906 -232.609375 47.796875 -244.296875 C 61.085938 -255.992188 75.984375 -264.722656 92.484375 -270.484375 C 108.984375 -276.253906 125.878906 -279.140625 143.171875 -279.140625 C 160.460938 -279.140625 177.4375 -276.253906 194.09375 -270.484375 C 210.75 -264.722656 225.640625 -255.992188 238.765625 -244.296875 C 251.898438 -232.609375 262.390625 -217.957031 270.234375 -200.34375 C 278.085938 -182.726562 282.015625 -162.066406 282.015625 -138.359375 L 282.015625 0 L 163.828125 0 L 163.828125 -138.359375 C 163.828125 -145.410156 161.742188 -150.9375 157.578125 -154.9375 C 153.421875 -158.945312 148.617188 -160.953125 143.171875 -160.953125 C 138.046875 -160.953125 133.320312 -158.945312 129 -154.9375 C 124.675781 -150.9375 122.515625 -145.410156 122.515625 -138.359375 Z M 122.515625 0 "/></g></g></g></svg>