<?xml version="1.0" encoding="UTF-8" standalone="no"?>
<!-- Created with Inkscape (http://www.inkscape.org/) -->

<svg
   width="13.535701mm"
   height="13.407189mm"
   viewBox="0 0 13.535701 13.407189"
   version="1.1"
   id="svg5"
   xml:space="preserve"
   inkscape:version="1.2.2 (732a01da63, 2022-12-09)"
   sodipodi:docname="close.svg"
   xmlns:inkscape="http://www.inkscape.org/namespaces/inkscape"
   xmlns:sodipodi="http://sodipodi.sourceforge.net/DTD/sodipodi-0.dtd"
   xmlns="http://www.w3.org/2000/svg"
   xmlns:svg="http://www.w3.org/2000/svg"><sodipodi:namedview
     id="namedview7"
     pagecolor="#ffffff"
     bordercolor="#000000"
     borderopacity="0.25"
     inkscape:showpageshadow="2"
     inkscape:pageopacity="0.0"
     inkscape:pagecheckerboard="0"
     inkscape:deskcolor="#d1d1d1"
     inkscape:document-units="mm"
     showgrid="false"
     inkscape:zoom="12.186869"
     inkscape:cx="2.2565271"
     inkscape:cy="30.647741"
     inkscape:window-width="2400"
     inkscape:window-height="1284"
     inkscape:window-x="-9"
     inkscape:window-y="-9"
     inkscape:window-maximized="1"
     inkscape:current-layer="layer1" /><defs
     id="defs2" /><g
     inkscape:label="Capa 1"
     inkscape:groupmode="layer"
     id="layer1"
     transform="translate(-26.232145,-53.217457)"><path
       d="m 27.09788,53.24596 c -0.337411,0.07809 -0.620979,0.308812 -0.775327,0.635371 -0.07179,0.15618 -0.08974,0.248469 -0.08974,0.461442 0.0036,0.486289 -0.118453,0.344307 2.656211,3.088114 1.36759,1.355929 2.491096,2.481139 2.491096,2.495337 0,0.0142 -1.116327,1.132308 -2.480328,2.48469 -2.781843,2.750905 -2.666979,2.619572 -2.666979,3.11296 0,0.31591 0.07897,0.514685 0.287158,0.745406 0.305105,0.333658 0.807632,0.443694 1.259906,0.280415 0.19742,-0.07099 0.341,-0.205874 2.720821,-2.55568 l 2.512633,-2.481139 2.494684,2.46694 c 2.774664,2.740258 2.659802,2.64442 3.130022,2.64442 0.452274,0 0.832759,-0.227172 1.033769,-0.624722 0.125633,-0.248469 0.129221,-0.695713 0.0036,-0.95483 -0.0682,-0.141982 -0.603031,-0.688614 -2.573653,-2.64442 l -2.487506,-2.46694 2.487506,-2.470491 c 1.902422,-1.891914 2.505453,-2.513086 2.573653,-2.644419 0.0682,-0.141983 0.08615,-0.230722 0.08615,-0.475641 0,-0.259117 -0.01436,-0.330109 -0.100506,-0.504037 -0.111273,-0.227171 -0.305105,-0.408199 -0.559958,-0.528884 -0.125631,-0.06034 -0.229726,-0.08164 -0.434326,-0.08164 -0.524064,-0.0035 -0.384075,-0.120685 -3.158739,2.640869 -1.353231,1.348831 -2.476736,2.449194 -2.494684,2.449194 -0.02154,0 -1.134274,-1.086165 -2.476738,-2.417248 -1.342464,-1.327534 -2.505454,-2.456293 -2.584422,-2.505986 -0.251263,-0.16328 -0.563547,-0.216523 -0.854295,-0.149082 z"
       id="path11"
       style="fill:#000000;stroke:none;stroke-width:0.00356946" /><path
       style="fill:#ffffff;stroke-width:0.018918"
       d="M 3.7329051,50.582341 C 2.5526767,50.448359 1.5464902,49.868073 0.81940622,48.902075 0.22486515,48.112172 0.0964562,47.687328 0.08868343,46.484459 0.08067037,45.244406 0.14987418,45.072515 1.1415214,43.869386 1.499752,43.434759 5.7743011,39.114217 10.640519,34.268182 c 4.866219,-4.846036 8.84767,-8.857632 8.84767,-8.914659 0,-0.05703 -3.945949,-4.030962 -8.768776,-8.830966 C 5.8965862,11.722552 1.6594436,7.4563356 1.3035406,7.0420756 0.9476376,6.6278157 0.5272068,6.0752896 0.3692499,5.8142399 L 0.08205553,5.3396041 V 4.2635614 3.1875186 L 0.42900679,2.4874792 C 1.0293867,1.2760997 2.1711004,0.38062297 3.4463324,0.12090952 4.354729,-0.06409431 5.5658426,0.15894733 6.3593038,0.65736939 6.7519526,0.90401639 10.091032,4.1278542 16.907566,10.841582 c 6.863799,6.760278 8.635904,8.482496 8.728205,8.482496 0.08759,0 4.487488,-4.317786 11.412302,-11.1993219 7.450214,-7.40365245 7.998027,-7.88064019 9.231247,-8.03777029 0.225653,-0.0287514 0.751294,-0.0162265 1.16809,0.0278331 0.623832,0.0659453 0.863203,0.13487552 1.353917,0.38987837 0.793708,0.41245669 1.576191,1.19663052 1.952748,1.95696872 l 0.284466,0.5743887 v 1.1898052 c 0,1.1312507 -0.01108,1.212369 -0.225164,1.6482907 C 50.48224,6.5484205 47.91434,9.1941657 39.146972,17.894222 l -7.530988,7.473169 6.223918,6.182148 c 7.680779,7.629231 10.949104,10.920475 12.060459,12.145032 1.031849,1.136953 1.179208,1.48481 1.179208,2.783638 0,1.212766 -0.279636,1.97775 -1.017627,2.783866 -0.804316,0.878564 -1.865342,1.325048 -3.209515,1.350579 -0.775093,0.01472 -0.852104,6.57e-4 -1.353917,-0.247445 -1.04605,-0.517156 -2.396946,-1.797703 -13.684747,-12.972097 l -6.177949,-6.115881 -1.945549,1.923905 C 11.853829,44.905888 7.6121668,49.045275 6.7154615,49.766636 5.858843,50.455751 4.9081482,50.715758 3.7329051,50.582341 Z"
       id="path196"
       transform="matrix(0.26458333,0,0,0.26458333,26.232145,53.217457)" /></g></svg>
