<?xml version="1.0" encoding="UTF-8" standalone="no"?>
<!-- Created with Inkscape (http://www.inkscape.org/) -->

<svg
   width="10.995669mm"
   height="10.622982mm"
   viewBox="0 0 10.995669 10.622982"
   version="1.1"
   id="svg5"
   xml:space="preserve"
   inkscape:version="1.2.2 (732a01da63, 2022-12-09)"
   sodipodi:docname="logo.svg"
   xmlns:inkscape="http://www.inkscape.org/namespaces/inkscape"
   xmlns:sodipodi="http://sodipodi.sourceforge.net/DTD/sodipodi-0.dtd"
   xmlns="http://www.w3.org/2000/svg"
   xmlns:svg="http://www.w3.org/2000/svg"><sodipodi:namedview
     id="namedview7"
     pagecolor="#ffffff"
     bordercolor="#000000"
     borderopacity="0.25"
     inkscape:showpageshadow="2"
     inkscape:pageopacity="0.0"
     inkscape:pagecheckerboard="0"
     inkscape:deskcolor="#d1d1d1"
     inkscape:document-units="mm"
     showgrid="false"
     inkscape:zoom="12.186869"
     inkscape:cx="-23.426855"
     inkscape:cy="22.688355"
     inkscape:window-width="2400"
     inkscape:window-height="1284"
     inkscape:window-x="-9"
     inkscape:window-y="-9"
     inkscape:window-maximized="1"
     inkscape:current-layer="layer1" /><defs
     id="defs2" /><g
     inkscape:label="Capa 1"
     inkscape:groupmode="layer"
     id="layer1"
     transform="translate(-77.758872,-77.185328)"><path
       d="m 82.320979,77.241718 c -2.189811,0.39441 -3.862584,1.869785 -4.44552,3.919737 -0.10138,0.365193 -0.116587,0.521004 -0.116587,1.339038 0,0.818034 0.01521,0.973849 0.116587,1.339042 0.572798,2.010994 2.174605,3.45229 4.344141,3.905127 0.501831,0.102254 1.7336,0.07791 2.270915,-0.04869 2.037741,-0.482054 3.588861,-1.928219 4.126175,-3.832089 0.121655,-0.443104 0.13686,-0.569702 0.13686,-1.363387 0.0051,-0.813161 -0.0051,-0.910546 -0.13686,-1.363387 -0.288937,-1.0128 -0.952976,-2.025604 -1.728535,-2.6586 -1.049283,-0.847251 -2.134051,-1.251395 -3.477339,-1.29035 -0.471418,-0.0097 -0.811042,0.0049 -1.089837,0.05356 z m -2.230363,2.473572 c 0.598143,0.749861 2.620676,3.267257 2.671367,3.320818 0.02535,0.02923 0.04055,-0.613525 0.03041,-1.631194 -0.01521,-1.660407 -0.01521,-1.679887 -0.131796,-1.835702 -0.06083,-0.08277 -0.157139,-0.170422 -0.212897,-0.185029 -0.223036,-0.06817 -0.07604,-0.121734 0.329484,-0.121734 0.238245,0 0.430866,0.0146 0.430866,0.03409 0,0.0195 -0.05069,0.08278 -0.111518,0.150947 l -0.116587,0.116861 -0.01521,2.264195 c -0.01013,1.752927 -0.02535,2.259325 -0.07604,2.244718 -0.03548,-0.0146 -0.790764,-0.934893 -1.68291,-2.045079 -0.892145,-1.115054 -1.642359,-2.04508 -1.662634,-2.069428 -0.02535,-0.01946 -0.03548,0.759603 -0.02535,1.738321 0.01521,1.962301 0.02535,2.006125 0.349761,2.181416 0.0811,0.04869 0.147001,0.09739 0.147001,0.116861 0,0.02436 -0.20276,0.03896 -0.45621,0.03896 -0.248382,0 -0.456211,-0.0097 -0.456211,-0.02432 0,-0.0097 0.05576,-0.07304 0.121656,-0.13634 0.07604,-0.07304 0.136863,-0.204504 0.15714,-0.331107 0.01521,-0.11686 0.02535,-1.051754 0.01521,-2.079165 l -0.01521,-1.869785 -0.162209,-0.141209 c -0.09124,-0.07791 -0.167277,-0.150947 -0.167277,-0.165553 0,-0.0146 0.15207,-0.02436 0.344693,-0.02436 h 0.339623 z m 4.704039,2.54174 c 0.441004,0.696299 0.81611,1.270874 0.836385,1.275743 0.02027,0.0049 0.258522,-0.355456 0.532248,-0.803423 0.273726,-0.447972 0.623487,-1.022542 0.785698,-1.275743 l 0.288932,-0.462578 0.344692,-0.0097 c 0.187554,-0.0049 0.339623,0.0097 0.339623,0.02923 0,0.01946 -0.05576,0.08277 -0.121654,0.141205 -0.217969,0.180164 -0.238244,0.379799 -0.223038,2.157071 0.01521,1.655542 0.01521,1.660412 0.131794,1.748059 0.06083,0.04869 0.111519,0.10225 0.111519,0.116861 0,0.0146 -0.228104,0.02923 -0.506901,0.02923 -0.278793,0 -0.506901,-0.0097 -0.506901,-0.02432 0,-0.0146 0.04562,-0.06817 0.09631,-0.116865 0.141932,-0.136336 0.162207,-0.433361 0.147001,-2.088903 l -0.01521,-1.475378 -0.785699,1.275742 c -0.430865,0.701169 -0.811039,1.285477 -0.841454,1.295219 -0.05069,0.0146 -0.299071,-0.350587 -1.33315,-2.006125 l -0.334554,-0.530751 -0.01521,1.21244 c -0.01014,0.671956 0,1.397469 0.01521,1.611719 0.03549,0.423623 0.157139,0.691431 0.334554,0.735254 0.223037,0.05843 0.07097,0.111992 -0.309208,0.111992 -0.223037,0 -0.405521,-0.0146 -0.405521,-0.02923 0,-0.0146 0.05069,-0.06817 0.116587,-0.116861 l 0.111518,-0.08765 v -1.748055 c 0,-1.874657 -0.01521,-1.98665 -0.25852,-2.108379 -0.177415,-0.09252 -0.06589,-0.141209 0.329486,-0.131468 l 0.334555,0.0097 z"
       id="path11"
       style="fill:#2c5aa0;stroke:none;stroke-width:0.00496813" /><path
       style="fill:#d7e3f4;stroke-width:0.009459"
       d="M 18.841881,25.38593 C 17.651478,23.987986 14.830328,20.512302 9.9117717,14.383948 6.745482,10.43886 6.7810141,10.482594 6.7421408,10.482594 c -0.016711,0 -0.045066,0.06923 -0.063013,0.153854 -0.017946,0.08462 -0.031035,2.41551 -0.029086,5.179756 0.0059,8.362296 0.055949,8.777159 1.133914,9.398431 0.1641829,0.09462 0.3979401,0.245903 0.5194606,0.336173 0.2789921,0.207246 0.2536766,0.224484 -0.4156881,0.283051 -0.5603591,0.04903 -2.6107548,0.0229 -2.713463,-0.03458 -0.052544,-0.02941 -0.00114,-0.104954 0.2797167,-0.411127 0.3835669,-0.418136 0.5604717,-0.737589 0.671706,-1.21296 C 6.1897,23.901629 6.194678,23.331835 6.188684,16.964976 6.185104,13.162728 6.169569,9.8285971 6.154162,9.5557962 L 6.1261487,9.0597997 5.6683375,8.6662094 C 5.4165414,8.4497348 5.1399822,8.2000221 5.0537615,8.1112923 4.8993368,7.9523735 4.8984181,7.9495567 4.9922199,7.9225873 5.0445926,7.9075293 5.6159054,7.8837701 6.2618038,7.869789 l 1.1743607,-0.02542 0.282125,0.3635483 C 8.5420745,9.269453 16.890549,19.679204 18.371773,21.491796 c 0.31913,0.390522 0.545819,0.634789 0.568272,0.612337 0.08981,-0.08981 0.125658,-2.211948 0.09997,-5.918679 -0.02713,-3.915237 -0.06962,-5.728451 -0.147591,-6.2977622 -0.02601,-0.189965 -0.09395,-0.434249 -0.161277,-0.5799294 C 18.583779,8.9888961 18.108121,8.4791472 17.837224,8.3497706 17.729818,8.2984747 17.579,8.2265786 17.502073,8.1900015 c -0.07693,-0.036577 -0.1413,-0.084966 -0.143051,-0.1075315 -0.01188,-0.1530084 1.234921,-0.2558399 2.3418,-0.1931435 0.410164,0.023233 0.775962,0.059148 0.812886,0.079811 0.05819,0.032564 0.04418,0.067216 -0.105129,0.2600761 -0.09474,0.1223784 -0.289008,0.3425124 -0.431699,0.4891867 l -0.259437,0.2666804 -0.04351,6.2157063 c -0.06122,8.745872 -0.115175,10.790303 -0.284777,10.790303 -0.01758,0 -0.263852,-0.272322 -0.547276,-0.60516 z"
       id="path875"
       transform="matrix(0.26458333,0,0,0.26458333,77.758872,77.185328)" /><path
       style="fill:#ffffff;stroke-width:0.009459"
       d="m 21.834467,30.256008 c -0.311682,-0.01678 -0.577053,-0.04087 -0.589714,-0.05353 -0.05286,-0.05286 0.04403,-0.159809 0.41532,-0.458442 l 0.392351,-0.315574 -8.89e-4,-5.052193 c -0.0013,-7.321024 -0.05448,-8.43601 -0.433303,-9.082419 -0.102216,-0.174418 -0.168964,-0.230654 -0.611618,-0.515288 -0.242123,-0.155689 -0.2722,-0.239027 -0.114824,-0.318151 0.164252,-0.08258 2.544019,-0.110903 2.643583,-0.03146 0.03712,0.02962 0.884563,1.346224 1.883206,2.925793 2.59951,4.111684 4.199954,6.580935 4.309187,6.648445 0.107244,0.06628 0.844318,-1.054625 2.847528,-4.330376 1.760314,-2.878555 3.178483,-5.141222 3.27395,-5.22354 0.08004,-0.06901 0.174174,-0.07359 1.266332,-0.06154 0.847728,0.0093 1.193707,0.02687 1.229033,0.06224 0.03822,0.03827 -0.04223,0.143327 -0.361294,0.47182 -0.225754,0.232424 -0.448375,0.496995 -0.494715,0.587935 -0.386283,0.758073 -0.45677,2.297455 -0.385288,8.414382 0.04902,4.194778 0.07837,5.0247 0.1916,5.417399 0.05185,0.179835 0.10749,0.253343 0.368677,0.487105 0.169185,0.15142 0.307609,0.299016 0.307609,0.327992 0,0.08108 -0.635125,0.117112 -2.030875,0.115213 -1.179989,-0.0016 -1.70302,-0.02883 -1.702332,-0.08859 1.64e-4,-0.0153 0.118447,-0.160579 0.262824,-0.322842 0.522105,-0.586784 0.593583,-1.030304 0.627428,-3.893189 0.0271,-2.292009 -0.02651,-9.658659 -0.07029,-9.658659 -0.01722,0 -0.710533,1.103134 -1.540688,2.451409 -2.023778,3.28687 -3.031635,4.897393 -3.742124,5.979797 -0.689866,1.050984 -0.853571,1.265222 -0.932877,1.22084 -0.174964,-0.09791 -1.005948,-1.303511 -2.326155,-3.374798 -0.740084,-1.161124 -3.685744,-5.840278 -3.803031,-6.041079 -0.03616,-0.06191 -0.07688,-0.112683 -0.09049,-0.112826 -0.07024,-7.37e-4 -0.135161,7.286929 -0.08187,9.18996 0.05877,2.098938 0.147404,2.692224 0.51826,3.469159 0.213131,0.446505 0.428346,0.664718 0.781492,0.79238 0.29056,0.105036 0.356104,0.140015 0.376388,0.200866 0.0243,0.07291 -0.278855,0.134126 -0.864222,0.17452 -0.5996,0.04137 -0.701778,0.04119 -1.518162,-0.0028 z"
       id="path877"
       transform="matrix(0.26458333,0,0,0.26458333,77.758872,77.185328)" /><path
       style="fill:#ffffff;stroke-width:0.018918"
       d="m 5.6002901,25.822483 c -0.2143701,-0.01376 -0.3897638,-0.04457 -0.3897638,-0.06847 0,-0.0239 0.169661,-0.259413 0.3770244,-0.523353 0.2073635,-0.263941 0.4271852,-0.620841 0.4884927,-0.793111 0.091314,-0.256589 0.1084536,-1.675277 0.094795,-7.846517 L 6.154165,9.057732 5.5396313,8.4989469 4.9250977,7.9401618 6.1493688,7.8789605 c 1.0802515,-0.054002 1.2357304,-0.04553 1.3216839,0.072019 0.053577,0.073271 0.2115804,0.2712996 0.3511186,0.4400636 0.1395381,0.1687639 0.4078518,0.509931 0.5962525,0.758149 0.1884008,0.248218 0.3864209,0.4882304 0.4400447,0.533361 0.053624,0.045131 0.1317423,0.1427094 0.1735967,0.2168419 0.041854,0.074133 0.1945381,0.27722 0.3392971,0.451305 0.1447589,0.174086 1.3404957,1.664281 2.6571917,3.311546 1.316697,1.647265 2.453707,3.058198 2.52669,3.135406 0.07298,0.07721 0.196531,0.224908 0.274552,0.328222 0.303504,0.401896 1.97252,2.492065 2.082893,2.608482 0.06418,0.0677 0.378027,0.455408 0.697434,0.861583 0.319408,0.406175 0.632121,0.793887 0.694918,0.861583 0.0628,0.0677 0.224467,0.250234 0.359267,0.405641 0.134799,0.155406 0.273774,0.253846 0.308833,0.218754 0.07711,-0.07719 0.0815,-10.040858 0.005,-11.37367 C 18.923056,9.748329 18.8271,9.3323609 18.593104,9.0390921 18.27946,8.6459995 17.950786,8.3570355 17.698916,8.2529385 17.546591,8.1899831 17.458746,8.1097572 17.498552,8.0699516 17.678481,7.8900225 20.27082,7.8530827 20.445693,8.027956 c 0.02671,0.026707 -0.136135,0.2622175 -0.361872,0.5233558 l -0.410432,0.4747968 -0.01312,3.6924994 c -0.01958,5.510423 -0.150418,12.773633 -0.234124,12.997364 -0.07088,0.189444 -0.09153,0.175817 -0.559649,-0.36935 -0.26733,-0.311329 -0.705738,-0.833713 -0.974239,-1.160855 -0.268502,-0.32714 -0.517746,-0.594801 -0.553875,-0.594801 -0.03613,0 -0.06569,-0.03826 -0.06569,-0.08502 0,-0.09018 -1.395774,-1.830628 -1.653304,-2.061577 -0.08356,-0.07493 -0.151918,-0.157857 -0.151918,-0.184284 0,-0.06762 -4.088634,-5.147415 -4.276685,-5.313437 -0.08487,-0.07493 -0.154314,-0.17616 -0.154314,-0.224957 0,-0.0488 -0.07385,-0.134841 -0.164111,-0.19121 -0.09026,-0.05637 -0.164111,-0.138465 -0.164111,-0.182435 0,-0.04397 -0.07451,-0.155094 -0.165587,-0.246942 -0.09107,-0.09185 -0.340317,-0.39013 -0.5538753,-0.662847 C 9.7752266,14.165539 9.5546643,13.888602 9.4986462,13.82284 9.4426281,13.757079 8.9117,13.094012 8.3188062,12.349358 7.7259122,11.604704 7.1884795,10.940054 7.1245113,10.872358 7.060543,10.804662 6.9552167,10.675425 6.8904527,10.585164 6.7886512,10.443284 6.7611749,10.437726 6.68762,10.544136 6.598128,10.673602 6.625004,22.015267 6.716689,22.811438 c 0.1675975,1.455371 0.2778397,1.806677 0.6781686,2.161101 0.161234,0.142745 0.3449811,0.259537 0.408327,0.259537 0.063346,0 0.1151742,0.02896 0.1151742,0.06436 0,0.0354 0.1133314,0.13131 0.2518476,0.213134 0.1385162,0.08182 0.2278372,0.172866 0.1984912,0.202316 -0.062038,0.06226 -2.1942199,0.147437 -2.7684076,0.110593 z"
       id="path955"
       transform="matrix(0.26458333,0,0,0.26458333,77.758872,77.185328)" /><path
       style="fill:#ffffff;stroke-width:0.018918"
       d="m 21.293411,30.159492 c 0,-0.04288 0.168314,-0.218277 0.37403,-0.389764 l 0.374031,-0.311792 -0.02997,-6.564442 c -0.02687,-5.886213 -0.04445,-6.61531 -0.170141,-7.056776 -0.138821,-0.487592 -0.376612,-0.791352 -0.876213,-1.119294 -0.112803,-0.07404 -0.174428,-0.166358 -0.136943,-0.205139 0.03749,-0.03878 0.651697,-0.08222 1.364916,-0.09654 l 1.29676,-0.02603 0.162885,0.231168 c 0.08959,0.127143 1.00386,1.560468 2.031718,3.185168 2.666311,4.214542 3.986583,6.206002 4.092081,6.172374 0.158242,-0.05044 0.863974,-1.135368 3.18772,-4.900514 1.239474,-2.008309 2.397678,-3.881845 2.573787,-4.163414 l 0.320197,-0.511944 1.196643,-9.03e-4 c 0.658154,-4.98e-4 1.221132,0.02359 1.251063,0.05352 0.02993,0.02993 -0.14528,0.263785 -0.389359,0.519676 -0.555707,0.582601 -0.679164,0.968133 -0.788058,2.460968 -0.150546,2.063845 -0.02641,11.482426 0.157295,11.934545 0.05378,0.132352 0.234597,0.360021 0.401819,0.505931 0.235262,0.205276 0.275738,0.276516 0.178928,0.314919 -0.06881,0.0273 -0.915872,0.03964 -1.882355,0.02743 l -1.757244,-0.0222 0.26203,-0.298335 c 0.391206,-0.445409 0.501089,-0.791335 0.58922,-1.85492 0.08614,-1.039583 0.09328,-8.443546 0.01014,-10.515561 l -0.05068,-1.263098 -2.043678,3.314486 c -1.124023,1.822967 -2.500933,4.011236 -3.059799,4.862821 -1.015066,1.546727 -1.0163,1.548175 -1.188421,1.394944 -0.242096,-0.215527 -2.010215,-2.910576 -4.217517,-6.428533 l -1.877873,-2.992921 -0.06844,0.408172 c -0.03764,0.224494 -0.05482,2.752908 -0.03818,5.618697 0.02943,5.06633 0.03526,5.228498 0.210578,5.859922 0.248007,0.893199 0.582157,1.394956 1.047284,1.57259 0.429644,0.164082 0.45636,0.24166 0.107264,0.311479 -0.413532,0.08271 -2.61552,0.06024 -2.61552,-0.02669 z"
       id="path957"
       transform="matrix(0.26458333,0,0,0.26458333,77.758872,77.185328)" /><path
       style="fill:#ffffff;stroke-width:0.018918"
       d="m 5.3490447,25.75352 c -0.02912,-0.02912 0.070723,-0.222975 0.2218733,-0.430791 0.6386801,-0.878121 0.5805968,-0.05234 0.605807,-8.612913 L 6.1992849,9.0491378 5.6584021,8.5535169 C 5.262794,8.1910139 5.1465389,8.0394945 5.2255644,7.9893839 5.2849893,7.9517023 5.7987358,7.9203065 6.3672232,7.9196154 l 1.0336136,-0.00126 0.7305804,0.9145586 c 0.4018192,0.5030072 0.8031644,1.0107258 0.8918782,1.1282635 0.5968257,0.7907395 9.5069356,11.8230335 9.6772576,11.9821595 0.11693,0.109243 0.24044,0.170813 0.274466,0.136821 0.096,-0.0959 0.123454,-9.636221 0.03196,-11.107075 C 18.899752,9.2493345 18.746504,8.8946468 17.862697,8.3246896 17.530218,8.1102779 17.520187,8.0931065 17.695011,8.0376197 c 0.243469,-0.077274 2.58594,-0.09235 2.661164,-0.017127 0.0319,0.0319 -0.113422,0.2662239 -0.322938,0.5207203 L 19.6523,9.0039338 19.6507,10.656132 c -0.0029,2.96036 -0.154766,13.114987 -0.210903,14.104125 -0.0301,0.530284 -0.08517,0.964153 -0.12239,0.964153 -0.03722,0 -0.295808,-0.267707 -0.574641,-0.594903 -1.241232,-1.456521 -1.593795,-1.877978 -2.248036,-2.687319 -0.38306,-0.473871 -0.803178,-0.99082 -0.933595,-1.148777 -0.130417,-0.157957 -0.900215,-1.118007 -1.710661,-2.133444 -1.710193,-2.142767 -2.754562,-3.428355 -2.947987,-3.628891 -0.07508,-0.07784 -0.19565,-0.230287 -0.267929,-0.338768 -0.315044,-0.472835 -3.793619,-4.730228 -3.8649123,-4.730228 -0.043428,0 -0.1011913,0.08858 -0.1283626,0.196836 -0.027171,0.108259 -0.032588,2.942252 -0.012037,6.297761 0.043881,7.16485 0.054918,7.284185 0.7407001,8.008719 0.1388294,0.146674 0.2913298,0.268181 0.3388899,0.270015 0.04756,0.0018 0.2075178,0.106934 0.3554617,0.233556 l 0.2689889,0.23022 -0.8766563,0.05364 c -1.1171065,0.06835 -2.0395919,0.06865 -2.1075524,6.57e-4 z"
       id="path959"
       transform="matrix(0.26458333,0,0,0.26458333,77.758872,77.185328)" /><path
       style="fill:#ffffff;stroke-width:0.018918"
       d="m 21.293411,30.159492 c 0,-0.04288 0.166162,-0.216866 0.36925,-0.386626 l 0.36925,-0.308654 -7.06e-4,-5.870109 c -3.87e-4,-3.267074 -0.0374,-6.284711 -0.08345,-6.805079 -0.102516,-1.158233 -0.260488,-1.54906 -0.771808,-1.909472 -0.206177,-0.145327 -0.374867,-0.289741 -0.374867,-0.32092 0,-0.116271 0.401557,-0.155561 1.559055,-0.152544 l 1.189805,0.0031 2.004464,3.175431 c 2.421608,3.836262 4.110165,6.416624 4.198959,6.416624 0.106066,0 0.713835,-0.90267 1.933686,-2.871943 0.629005,-1.015438 1.823915,-2.944768 2.655356,-4.287402 l 1.511712,-2.441152 h 1.19872 c 0.659295,0 1.222443,0.02372 1.251438,0.05272 0.02899,0.029 -0.14829,0.269831 -0.393967,0.535191 -0.573452,0.619397 -0.678604,0.972133 -0.790953,2.653284 -0.09583,1.434003 -0.02734,9.973609 0.08927,11.130339 0.06316,0.626489 0.08378,0.677571 0.406147,1.006041 0.186787,0.190322 0.314165,0.371488 0.283061,0.402592 -0.07072,0.07072 -3.639644,0.07558 -3.639644,0.005 0,-0.02838 0.12678,-0.191927 0.281733,-0.363442 0.354464,-0.392348 0.443945,-0.704269 0.540034,-1.882516 0.08465,-1.037983 0.09097,-7.990904 0.0093,-10.241567 l -0.05155,-1.420598 -2.045224,3.307874 c -2.106869,3.407579 -3.315866,5.31266 -3.80686,5.998679 -0.275082,0.384343 -0.285207,0.389918 -0.447092,0.246167 -0.231209,-0.20531 -2.158551,-3.145125 -4.291194,-6.545446 l -1.800015,-2.869974 -0.05435,0.408308 c -0.08514,0.639556 -0.07358,9.503114 0.01359,10.419084 0.141407,1.485965 0.599018,2.444834 1.272917,2.66724 0.667094,0.220161 0.205275,0.327787 -1.406521,0.327787 -0.690473,0 -1.179548,-0.03233 -1.179548,-0.07797 z"
       id="path961"
       transform="matrix(0.26458333,0,0,0.26458333,77.758872,77.185328)" /></g></svg>
