<svg xmlns="http://www.w3.org/2000/svg" xmlns:xlink="http://www.w3.org/1999/xlink" width="500" zoomAndPan="magnify" viewBox="0 0 375 374.999991" height="500" preserveAspectRatio="xMidYMid meet" version="1.0"><defs><g/></defs><path stroke-linecap="butt" transform="matrix(4.626102, 0, 0, 4.626102, -68.895445, -15.89578)" fill="none" stroke-linejoin="miter" d="M 31.358437 54.999838 L 18.24754 54.999838 L 18.24754 39.636099 C 18.24754 37.006658 18.681558 34.714974 19.549595 32.761892 C 20.426075 30.80881 21.602315 29.185885 23.077471 27.892275 C 24.55347 26.59022 26.202571 25.618323 28.025616 24.97574 C 29.857106 24.333156 31.735881 24.012287 33.662787 24.012287 C 35.581249 24.012287 37.465091 24.333156 39.313468 24.97574 C 41.16269 25.618323 42.816012 26.59022 44.27428 27.892275 C 45.732547 29.185885 46.896121 30.80881 47.764158 32.761892 C 48.63135 34.714974 49.065368 37.006658 49.065368 39.636099 L 49.065368 54.999838 L 35.954471 54.999838 L 35.954471 39.636099 C 35.954471 38.855035 35.720574 38.24285 35.251091 37.800387 C 34.791741 37.357925 34.262306 37.136694 33.662787 37.136694 C 33.090288 37.136694 32.560853 37.357925 32.074483 37.800387 C 31.597401 38.24285 31.358437 38.855035 31.358437 39.636099 Z M 31.358437 54.999838 " stroke="#000000" stroke-width="3.999998" stroke-opacity="1" stroke-miterlimit="4"/><g fill="#ffffff" fill-opacity="1"><g transform="translate(13.290143, 238.539813)"><g><path d="M 62.90625 0 L 2.21875 0 L 2.21875 -71.046875 C 2.21875 -83.222656 4.234375 -93.832031 8.265625 -102.875 C 12.296875 -111.914062 17.722656 -119.4375 24.546875 -125.4375 C 31.367188 -131.445312 39.015625 -135.929688 47.484375 -138.890625 C 55.960938 -141.847656 64.640625 -143.328125 73.515625 -143.328125 C 82.398438 -143.328125 91.117188 -141.847656 99.671875 -138.890625 C 108.222656 -135.929688 115.867188 -131.445312 122.609375 -125.4375 C 129.347656 -119.4375 134.734375 -111.914062 138.765625 -102.875 C 142.796875 -93.832031 144.8125 -83.222656 144.8125 -71.046875 L 144.8125 0 L 84.125 0 L 84.125 -71.046875 C 84.125 -74.671875 83.054688 -77.507812 80.921875 -79.5625 C 78.785156 -81.613281 76.316406 -82.640625 73.515625 -82.640625 C 70.878906 -82.640625 68.453125 -81.613281 66.234375 -79.5625 C 64.015625 -77.507812 62.90625 -74.671875 62.90625 -71.046875 Z M 62.90625 0 "/></g></g></g><path stroke-linecap="butt" transform="matrix(3.38255, 0, 0, 3.38255, 119.600416, 4.911357)" fill="none" stroke-linejoin="miter" d="M 20.902652 55.859632 C 18.732737 55.859632 16.688699 55.450824 14.770537 54.635518 C 12.852374 53.810974 11.164022 52.668853 9.705479 51.211466 C 8.246936 49.752923 7.11059 48.06457 6.294129 46.146408 C 5.478824 44.228245 5.070016 42.184207 5.070016 40.014293 C 5.070016 37.809734 5.478824 35.756457 6.294129 33.855617 C 7.11059 31.954777 8.246936 30.274508 9.705479 28.817121 C 11.164022 27.358578 12.852374 26.221076 14.770537 25.405771 C 16.688699 24.58931 18.732737 24.181657 20.902652 24.181657 C 23.10721 24.181657 25.160487 24.58931 27.061327 25.405771 C 28.970251 26.221076 30.65052 27.358578 32.099824 28.817121 C 33.558367 30.274508 34.694713 31.954777 35.511174 33.855617 C 36.335718 35.756457 36.74799 37.809734 36.74799 40.014293 C 36.74799 42.184207 36.335718 44.228245 35.511174 46.146408 C 34.694713 48.06457 33.558367 49.752923 32.099824 51.211466 C 30.65052 52.668853 28.970251 53.810974 27.061327 54.635518 C 25.160487 55.450824 23.10721 55.859632 20.902652 55.859632 Z M 20.902652 37.292373 C 20.156635 37.292373 19.513398 37.561447 18.97525 38.099595 C 18.446341 38.629659 18.181886 39.267122 18.181886 40.014293 C 18.181886 40.760309 18.446341 41.402391 18.97525 41.940539 C 19.513398 42.470603 20.156635 42.735058 20.902652 42.735058 C 21.648668 42.735058 22.287285 42.470603 22.816195 41.940539 C 23.354343 41.402391 23.623417 40.760309 23.623417 40.014293 C 23.623417 39.267122 23.354343 38.629659 22.816195 38.099595 C 22.287285 37.561447 21.648668 37.292373 20.902652 37.292373 Z M 20.902652 37.292373 " stroke="#171616" stroke-width="3.999998" stroke-opacity="1" stroke-miterlimit="4"/><g fill="#ffffff" fill-opacity="1"><g transform="translate(135.297564, 190.951627)"><g><path d="M 55.015625 2.890625 C 47.679688 2.890625 40.765625 1.507812 34.265625 -1.25 C 27.773438 -4.019531 22.0625 -7.867188 17.125 -12.796875 C 12.195312 -17.734375 8.347656 -23.445312 5.578125 -29.9375 C 2.816406 -36.4375 1.4375 -43.351562 1.4375 -50.6875 C 1.4375 -58.144531 2.816406 -65.085938 5.578125 -71.515625 C 8.347656 -77.953125 12.195312 -83.632812 17.125 -88.5625 C 22.0625 -93.5 27.773438 -97.347656 34.265625 -100.109375 C 40.765625 -102.878906 47.679688 -104.265625 55.015625 -104.265625 C 62.472656 -104.265625 69.414062 -102.878906 75.84375 -100.109375 C 82.28125 -97.347656 87.960938 -93.5 92.890625 -88.5625 C 97.828125 -83.632812 101.675781 -77.953125 104.4375 -71.515625 C 107.207031 -65.085938 108.59375 -58.144531 108.59375 -50.6875 C 108.59375 -43.351562 107.207031 -36.4375 104.4375 -29.9375 C 101.675781 -23.445312 97.828125 -17.734375 92.890625 -12.796875 C 87.960938 -7.867188 82.28125 -4.019531 75.84375 -1.25 C 69.414062 1.507812 62.472656 2.890625 55.015625 2.890625 Z M 55.015625 -59.890625 C 52.492188 -59.890625 50.328125 -58.988281 48.515625 -57.1875 C 46.710938 -55.382812 45.8125 -53.21875 45.8125 -50.6875 C 45.8125 -48.164062 46.710938 -46 48.515625 -44.1875 C 50.328125 -42.382812 52.492188 -41.484375 55.015625 -41.484375 C 57.546875 -41.484375 59.710938 -42.382812 61.515625 -44.1875 C 63.316406 -46 64.21875 -48.164062 64.21875 -50.6875 C 64.21875 -53.21875 63.316406 -55.382812 61.515625 -57.1875 C 59.710938 -58.988281 57.546875 -59.890625 55.015625 -59.890625 Z M 55.015625 -59.890625 "/></g></g></g><path stroke-linecap="butt" transform="matrix(3.38255, 0, 0, 3.38255, 183.582268, 55.323013)" fill="none" stroke-linejoin="miter" d="M 24.564189 41.511656 C 25.354089 41.085526 25.818328 40.490792 25.956907 39.727453 C 26.095485 38.954876 25.926881 38.260827 25.449939 37.644151 C 24.971842 37.019391 24.181942 36.706434 23.08024 36.706434 C 22.150607 36.671789 21.447319 36.932779 20.970377 37.48825 C 20.493435 38.034481 20.245148 38.673099 20.227825 39.401793 C 20.210503 40.131642 20.424145 40.781808 20.866443 41.3546 C 21.30874 41.919309 22.012028 42.201086 22.975151 42.201086 L 38.065235 42.201086 L 38.065235 54.999999 L 22.975151 54.999999 C 20.839882 54.999999 18.847811 54.60043 16.998938 53.802447 C 15.150065 53.003309 13.514834 51.892368 12.090936 50.46847 C 10.667038 49.045727 9.556098 47.409342 8.758114 45.560469 C 7.958976 43.711596 7.559407 41.719525 7.559407 39.584255 C 7.559407 36.780343 8.188786 34.224717 9.447544 31.91507 C 10.715541 29.598493 12.511292 27.740381 14.838262 26.343044 C 17.164077 24.936469 19.928726 24.215859 23.132207 24.181214 C 24.798618 24.181214 26.477732 24.341735 28.170704 24.66393 C 29.863676 24.975733 31.456178 25.578551 32.949365 26.473539 C 34.441398 27.358135 35.682833 28.673479 36.672518 30.418418 C 37.097493 31.164434 37.405831 32.054803 37.597531 33.087216 C 37.796161 34.111545 37.87007 35.165899 37.818103 36.251433 C 37.766136 37.335813 37.54441 38.352058 37.154079 39.297859 C 36.763749 40.235576 36.160931 40.973508 35.34447 41.511656 Z M 24.564189 41.511656 " stroke="#171616" stroke-width="3.999998" stroke-opacity="1" stroke-miterlimit="4"/><g fill="#ffffff" fill-opacity="1"><g transform="translate(207.524383, 241.363284)"><g><path d="M 59.171875 -45.640625 C 61.816406 -47.078125 63.378906 -49.085938 63.859375 -51.671875 C 64.335938 -54.265625 63.765625 -56.613281 62.140625 -58.71875 C 60.515625 -60.820312 57.835938 -61.875 54.109375 -61.875 C 50.984375 -61.988281 48.609375 -61.113281 46.984375 -59.25 C 45.367188 -57.394531 44.53125 -55.234375 44.46875 -52.765625 C 44.40625 -50.296875 45.125 -48.097656 46.625 -46.171875 C 48.132812 -44.253906 50.507812 -43.296875 53.75 -43.296875 L 104.8125 -43.296875 L 104.8125 0 L 53.75 0 C 46.539062 0 39.804688 -1.351562 33.546875 -4.0625 C 27.296875 -6.769531 21.765625 -10.523438 16.953125 -15.328125 C 12.140625 -20.140625 8.378906 -25.671875 5.671875 -31.921875 C 2.972656 -38.179688 1.625 -44.921875 1.625 -52.140625 C 1.625 -61.640625 3.757812 -70.296875 8.03125 -78.109375 C 12.300781 -85.921875 18.375 -92.203125 26.25 -96.953125 C 34.125 -101.703125 43.472656 -104.140625 54.296875 -104.265625 C 59.953125 -104.265625 65.632812 -103.722656 71.34375 -102.640625 C 77.050781 -101.554688 82.429688 -99.507812 87.484375 -96.5 C 92.535156 -93.5 96.742188 -89.050781 100.109375 -83.15625 C 101.554688 -80.632812 102.609375 -77.628906 103.265625 -74.140625 C 103.929688 -70.648438 104.171875 -67.070312 103.984375 -63.40625 C 103.804688 -59.738281 103.054688 -56.3125 101.734375 -53.125 C 100.410156 -49.9375 98.367188 -47.441406 95.609375 -45.640625 Z M 59.171875 -45.640625 "/></g></g></g><path stroke-linecap="butt" transform="matrix(3.38255, 0, 0, 3.38255, 270.088288, 55.323013)" fill="none" stroke-linejoin="miter" d="M 13.517674 17.619505 L 26.642247 17.619505 L 26.642247 54.999999 L 13.517674 54.999999 Z M 13.517674 17.619505 " stroke="#000000" stroke-width="3.999998" stroke-opacity="1" stroke-miterlimit="4"/><g fill="#ffffff" fill-opacity="1"><g transform="translate(314.00859, 241.363284)"><g><path d="M 1.796875 -126.453125 L 46.1875 -126.453125 L 46.1875 0 L 1.796875 0 Z M 1.796875 -126.453125 "/></g></g></g></svg>