<svg xmlns="http://www.w3.org/2000/svg" xmlns:xlink="http://www.w3.org/1999/xlink" width="500" zoomAndPan="magnify" viewBox="0 0 375 374.999991" height="500" preserveAspectRatio="xMidYMid meet" version="1.0"><defs><g/><clipPath id="1508330f8b"><path d="M 18.203125 210.816406 L 182.804688 210.816406 L 182.804688 232.902344 L 18.203125 232.902344 Z M 18.203125 210.816406 " clip-rule="nonzero"/></clipPath><clipPath id="be6dd884c3"><path d="M 194.894531 140.351562 L 358.910156 140.351562 L 358.910156 162.4375 L 194.894531 162.4375 Z M 194.894531 140.351562 " clip-rule="nonzero"/></clipPath></defs><g clip-path="url(#1508330f8b)"><path fill="#ffffff" d="M 18.203125 210.816406 L 182.808594 210.816406 L 182.808594 232.902344 L 18.203125 232.902344 Z M 18.203125 210.816406 " fill-opacity="1" fill-rule="nonzero"/></g><g clip-path="url(#be6dd884c3)"><path fill="#ffffff" d="M 194.894531 140.351562 L 358.898438 140.351562 L 358.898438 162.4375 L 194.894531 162.4375 Z M 194.894531 140.351562 " fill-opacity="1" fill-rule="nonzero"/></g><g fill="#ffffff" fill-opacity="1"><g transform="translate(10.101335, 182.028352)"><g><path d="M 8.203125 0 L 8.203125 -68.3125 L 21.375 -68.3125 L 51.53125 -26.734375 L 51.53125 -68.3125 L 66.953125 -68.3125 L 66.953125 0 L 53.78125 0 L 23.625 -41.875 L 23.625 0 Z M 8.203125 0 "/></g></g></g><g fill="#ffffff" fill-opacity="1"><g transform="translate(105.446573, 182.028352)"><g><path d="M 40.59375 1.359375 C 33.507812 1.359375 27.21875 -0.148438 21.71875 -3.171875 C 16.21875 -6.191406 11.921875 -10.367188 8.828125 -15.703125 C 5.742188 -21.046875 4.203125 -27.195312 4.203125 -34.15625 C 4.203125 -41.113281 5.742188 -47.257812 8.828125 -52.59375 C 11.921875 -57.9375 16.21875 -62.117188 21.71875 -65.140625 C 27.21875 -68.171875 33.507812 -69.6875 40.59375 -69.6875 C 47.75 -69.6875 54.0625 -68.171875 59.53125 -65.140625 C 65 -62.117188 69.289062 -57.9375 72.40625 -52.59375 C 75.53125 -47.257812 77.09375 -41.113281 77.09375 -34.15625 C 77.09375 -27.195312 75.53125 -21.046875 72.40625 -15.703125 C 69.289062 -10.367188 65 -6.191406 59.53125 -3.171875 C 54.0625 -0.148438 47.75 1.359375 40.59375 1.359375 Z M 20 -34.15625 C 20 -30.0625 20.878906 -26.453125 22.640625 -23.328125 C 24.398438 -20.203125 26.820312 -17.757812 29.90625 -16 C 33 -14.25 36.5625 -13.375 40.59375 -13.375 C 44.695312 -13.375 48.289062 -14.25 51.375 -16 C 54.46875 -17.757812 56.875 -20.203125 58.59375 -23.328125 C 60.320312 -26.453125 61.1875 -30.0625 61.1875 -34.15625 C 61.1875 -38.257812 60.320312 -41.867188 58.59375 -44.984375 C 56.875 -48.109375 54.46875 -50.546875 51.375 -52.296875 C 48.289062 -54.054688 44.695312 -54.9375 40.59375 -54.9375 C 36.5625 -54.9375 33 -54.054688 29.90625 -52.296875 C 26.820312 -50.546875 24.398438 -48.109375 22.640625 -44.984375 C 20.878906 -41.867188 20 -38.257812 20 -34.15625 Z M 20 -34.15625 "/></g></g></g><g fill="#ffffff" fill-opacity="1"><g transform="translate(209.02704, 267.600173)"><g><path d="M 9.34375 0 L 9.34375 -77.828125 L 60.484375 -77.828125 L 60.484375 -62.9375 L 26.90625 -62.9375 L 26.90625 -46.8125 L 57.484375 -46.8125 L 57.484375 -32.015625 L 26.90625 -32.015625 L 26.90625 -15.015625 L 61.703125 -15.015625 L 61.703125 0 Z M 9.34375 0 "/></g></g></g><g fill="#ffffff" fill-opacity="1"><g transform="translate(299.424018, 267.600173)"><g><path d="M 9.34375 0 L 9.34375 -77.828125 L 27.015625 -77.828125 L 27.015625 -16.5625 L 61.046875 -16.5625 L 61.046875 0 Z M 9.34375 0 "/></g></g></g></svg>