<svg xmlns="http://www.w3.org/2000/svg" xmlns:xlink="http://www.w3.org/1999/xlink" width="500" zoomAndPan="magnify" viewBox="0 0 375 374.999991" height="500" preserveAspectRatio="xMidYMid meet" version="1.0"><defs><g/><clipPath id="1612676b6a"><path d="M 89.914062 210.816406 L 182.804688 210.816406 L 182.804688 221.148438 L 89.914062 221.148438 Z M 89.914062 210.816406 " clip-rule="nonzero"/></clipPath><clipPath id="9104fef1f2"><path d="M 194.894531 152.109375 L 287.789062 152.109375 L 287.789062 162.4375 L 194.894531 162.4375 Z M 194.894531 152.109375 " clip-rule="nonzero"/></clipPath></defs><g clip-path="url(#1612676b6a)"><path fill="#ffffff" d="M 89.914062 210.816406 L 182.800781 210.816406 L 182.800781 221.148438 L 89.914062 221.148438 Z M 89.914062 210.816406 " fill-opacity="1" fill-rule="nonzero"/></g><g clip-path="url(#9104fef1f2)"><path fill="#ffffff" d="M 194.894531 152.109375 L 287.785156 152.109375 L 287.785156 162.4375 L 194.894531 162.4375 Z M 194.894531 152.109375 " fill-opacity="1" fill-rule="nonzero"/></g><g fill="#ffffff" fill-opacity="1"><g transform="translate(82.064046, 192.370037)"><g><path d="M 5.03125 0 L 5.03125 -41.984375 L 13.140625 -41.984375 L 31.671875 -16.4375 L 31.671875 -41.984375 L 41.15625 -41.984375 L 41.15625 0 L 33.046875 0 L 14.515625 -25.734375 L 14.515625 0 Z M 5.03125 0 "/></g></g></g><g fill="#ffffff" fill-opacity="1"><g transform="translate(140.670971, 192.370037)"><g><path d="M 24.953125 0.84375 C 20.597656 0.84375 16.726562 -0.0820312 13.34375 -1.9375 C 9.96875 -3.800781 7.328125 -6.375 5.421875 -9.65625 C 3.523438 -12.9375 2.578125 -16.71875 2.578125 -21 C 2.578125 -25.269531 3.523438 -29.046875 5.421875 -32.328125 C 7.328125 -35.609375 9.96875 -38.175781 13.34375 -40.03125 C 16.726562 -41.894531 20.597656 -42.828125 24.953125 -42.828125 C 29.347656 -42.828125 33.222656 -41.894531 36.578125 -40.03125 C 39.941406 -38.175781 42.582031 -35.609375 44.5 -32.328125 C 46.425781 -29.046875 47.390625 -25.269531 47.390625 -21 C 47.390625 -16.71875 46.425781 -12.9375 44.5 -9.65625 C 42.582031 -6.375 39.941406 -3.800781 36.578125 -1.9375 C 33.222656 -0.0820312 29.347656 0.84375 24.953125 0.84375 Z M 12.296875 -21 C 12.296875 -18.476562 12.832031 -16.253906 13.90625 -14.328125 C 14.988281 -12.410156 16.476562 -10.910156 18.375 -9.828125 C 20.28125 -8.753906 22.472656 -8.21875 24.953125 -8.21875 C 27.472656 -8.21875 29.679688 -8.753906 31.578125 -9.828125 C 33.484375 -10.910156 34.960938 -12.410156 36.015625 -14.328125 C 37.078125 -16.253906 37.609375 -18.476562 37.609375 -21 C 37.609375 -23.519531 37.078125 -25.738281 36.015625 -27.65625 C 34.960938 -29.570312 33.484375 -31.066406 31.578125 -32.140625 C 29.679688 -33.222656 27.472656 -33.765625 24.953125 -33.765625 C 22.472656 -33.765625 20.28125 -33.222656 18.375 -32.140625 C 16.476562 -31.066406 14.988281 -29.570312 13.90625 -27.65625 C 12.832031 -25.738281 12.296875 -23.519531 12.296875 -21 Z M 12.296875 -21 "/></g></g></g><g fill="#ffffff" fill-opacity="1"><g transform="translate(203.727193, 220.874386)"><g><path d="M 5.03125 0 L 5.03125 -41.984375 L 32.625 -41.984375 L 32.625 -33.953125 L 14.515625 -33.953125 L 14.515625 -25.25 L 31.015625 -25.25 L 31.015625 -17.28125 L 14.515625 -17.28125 L 14.515625 -8.09375 L 33.296875 -8.09375 L 33.296875 0 Z M 5.03125 0 "/></g></g></g><g fill="#ffffff" fill-opacity="1"><g transform="translate(252.496512, 220.874386)"><g><path d="M 5.03125 0 L 5.03125 -41.984375 L 14.578125 -41.984375 L 14.578125 -8.9375 L 32.9375 -8.9375 L 32.9375 0 Z M 5.03125 0 "/></g></g></g></svg>