<?xml version="1.0" encoding="UTF-8" standalone="no"?>
<!-- Created with Inkscape (http://www.inkscape.org/) -->

<svg
   width="22.961792mm"
   height="17.105728mm"
   viewBox="0 0 22.961792 17.105728"
   version="1.1"
   id="svg207"
   xml:space="preserve"
   inkscape:version="1.2.2 (732a01da63, 2022-12-09)"
   sodipodi:docname="menu.svg"
   xmlns:inkscape="http://www.inkscape.org/namespaces/inkscape"
   xmlns:sodipodi="http://sodipodi.sourceforge.net/DTD/sodipodi-0.dtd"
   xmlns="http://www.w3.org/2000/svg"
   xmlns:svg="http://www.w3.org/2000/svg"><sodipodi:namedview
     id="namedview209"
     pagecolor="#ffffff"
     bordercolor="#000000"
     borderopacity="0.25"
     inkscape:showpageshadow="2"
     inkscape:pageopacity="0.0"
     inkscape:pagecheckerboard="0"
     inkscape:deskcolor="#d1d1d1"
     inkscape:document-units="mm"
     showgrid="false"
     inkscape:zoom="4.3087087"
     inkscape:cx="83.43567"
     inkscape:cy="26.341999"
     inkscape:window-width="2400"
     inkscape:window-height="1284"
     inkscape:window-x="-9"
     inkscape:window-y="-9"
     inkscape:window-maximized="1"
     inkscape:current-layer="layer1" /><defs
     id="defs204" /><g
     inkscape:label="Capa 1"
     inkscape:groupmode="layer"
     id="layer1"
     transform="translate(-143.96647,-146.02609)"><g
       transform="matrix(0.0067183,0,0,-0.00670107,138.25073,171.74269)"
       fill="#000000"
       stroke="none"
       id="g219"><path
         d="m 975,3826 c -135,-60 -167,-256 -59,-358 66,-62 -45,-58 1644,-58 1689,0 1578,-4 1644,58 96,91 83,263 -26,338 l -41,29 -1566,2 c -1288,2 -1571,0 -1596,-11 z"
         id="path213" /><path
         d="m 998,2766 c -57,-20 -85,-42 -116,-88 -24,-36 -27,-51 -27,-119 0,-70 3,-81 30,-121 17,-23 51,-54 75,-68 l 45,-25 h 1555 1555 l 45,25 c 24,14 58,45 75,68 27,40 30,51 30,122 0,71 -3,82 -30,122 -17,23 -51,54 -75,68 l -45,25 -1540,2 c -1267,2 -1547,0 -1577,-11 z"
         id="path215" /><path
         d="M 975,1691 C 825,1622 807,1407 942,1314 l 41,-29 h 1577 1577 l 41,29 c 109,75 122,247 26,338 -66,62 45,58 -1646,58 -1481,0 -1545,-1 -1583,-19 z"
         id="path217" /></g><path
       style="fill:#ffffff;stroke-width:0.0535082"
       d="M 8.1128737,10.580024 C 2.7721649,10.403766 2.3861627,10.283384 1.1156842,8.3978169 -0.56506777,5.9033466 0.06828591,2.4683706 2.506511,0.85470674 L 3.4472797,0.23208809 43.34371,0.16771693 83.240138,0.10334576 84.365027,0.92909042 c 1.524023,1.11873518 2.204034,2.52128278 2.203208,4.54419068 -4.64e-4,1.2930133 -0.107522,1.6997196 -0.696264,2.6466716 -0.880981,1.4169966 -1.65367,1.9884843 -3.060219,2.2633623 -1.303957,0.254829 -67.644334,0.429527 -74.6988783,0.196709 z"
       id="path285"
       transform="matrix(0.26458333,0,0,0.26458333,143.96647,146.02609)" /><path
       style="fill:#ffffff;stroke-width:0.0535082"
       d="M 2.7606113,36.960029 C 2.1438957,36.545172 1.3350531,35.770475 0.96318325,35.238481 0.35504946,34.368489 0.28705633,34.086786 0.28705633,32.437205 c 0,-2.035401 0.19269501,-2.556785 1.41897407,-3.839385 1.5909147,-1.663981 -1.22981258,-1.559654 42.1427216,-1.558689 l 39.006698,8.68e-4 0.812308,0.486971 c 2.206694,1.322893 2.846133,2.427361 2.846133,4.91596 0,1.643258 -0.06843,1.926181 -0.676128,2.795551 -0.371868,0.531994 -1.180711,1.306691 -1.797427,1.721548 l -1.121301,0.754286 H 43.400474 3.8819122 Z"
       id="path287"
       transform="matrix(0.26458333,0,0,0.26458333,143.96647,146.02609)" /><path
       style="fill:#ffffff;stroke-width:0.0535082"
       d="M 2.6658049,64.012767 C 1.5228324,63.162623 0.62116726,61.936806 0.32139921,60.825539 c -0.57220095,-2.121201 0.3729279,-4.695012 2.15779039,-5.876178 0.8955867,-0.592672 1.1525973,-0.635448 4.9190429,-0.81872 6.4118385,-0.311995 74.5422285,-0.06726 75.8053495,0.272309 2.463926,0.662377 3.917774,3.501295 3.239975,6.326675 -0.240531,1.002652 -0.544133,1.48029 -1.633106,2.569262 l -1.337647,1.337647 -39.995741,-0.0086 -39.9957416,-0.0086 z"
       id="path289"
       transform="matrix(0.26458333,0,0,0.26458333,143.96647,146.02609)" /></g></svg>
